# xmcd
# 
# Track frame offsets:
#     150
#     31811
#     59709
#     81132
#     101680
#     132811
#     170909
#     183691
#     203956
#     219739
# 
# Disc length: 3171
# 
# Revision: 3
# Processed by: cddbd v1.5.2PL0 Copyright (c) Steve Scherf et al.
# Submitted via: fre:ac v1.0.31
# 
DISCID=980c610a
DTITLE=Rory Gallagher - Blueprint
DYEAR=1973
DGENRE=Blues Rock
TTITLE0=Walk On Hot Coals
TTITLE1=Daughter Of The Everglades
TTITLE2=Banker's Blues
TTITLE3=Hands Off
TTITLE4=Race The Breeze
TTITLE5=Seventh Son Of A Seventh Son
TTITLE6=Unmilitary Two-Step
TTITLE7=If I Had A Reason
TTITLE8=Stompin' Ground
TTITLE9=Treat Her Right
EXTD=YEAR: 1973
EXTT0=
EXTT1=
EXTT2=
EXTT3=
EXTT4=
EXTT5=
EXTT6=
EXTT7=
EXTT8=
EXTT9=
PLAYORDER=
